<svg xmlns="http://www.w3.org/2000/svg" width="66.865" height="49.901" viewBox="0 0 66.865 49.901">
  <g id="Icon" transform="translate(-0.236 -0.966)">
    <path id="Icon_Shape" data-name="Icon Shape" d="M37.2,38.04l-.086.02-.083-.56c-.067-.457-.16-1.117-.211-1.8a41.6,41.6,0,0,1-.093-5.823A40.167,40.167,0,0,1,38,21.757a36.874,36.874,0,0,1,1.56-4.453,27.088,27.088,0,0,1,2.34-4.33A23.39,23.39,0,0,1,44.934,9.1a26.062,26.062,0,0,1,3.5-3.146A31.17,31.17,0,0,1,52.07,3.647,20.915,20.915,0,0,1,55.5,2.09a18.056,18.056,0,0,1,2.939-1.04c.884-.223,1.66-.41,2.3-.571L62.724,0l1.617,6.46-1.58.656-1.8.741A12.635,12.635,0,0,0,58.8,9.023a14.155,14.155,0,0,0-2.38,1.543,22.558,22.558,0,0,0-2.307,2.013,16.627,16.627,0,0,0-2,2.456,14.093,14.093,0,0,0-1.563,2.813,12.012,12.012,0,0,0-.847,2.267,14.971,14.971,0,1,1,4.271,29.635A14.989,14.989,0,0,1,37.2,38.04Zm-36.666,0-.087.02L.361,37.5c-.067-.457-.16-1.117-.21-1.8A41.439,41.439,0,0,1,.058,29.88a40.231,40.231,0,0,1,1.28-8.123A37.029,37.029,0,0,1,2.9,17.3a27.088,27.088,0,0,1,2.34-4.33A23.39,23.39,0,0,1,8.267,9.1a25.965,25.965,0,0,1,3.5-3.15A31.419,31.419,0,0,1,15.4,3.643,20.708,20.708,0,0,1,18.831,2.09a18.064,18.064,0,0,1,2.94-1.04c.883-.223,1.66-.41,2.3-.571L26.058,0l1.616,6.46-1.58.656-1.8.741a12.6,12.6,0,0,0-2.166,1.166,14.161,14.161,0,0,0-2.381,1.543,22.654,22.654,0,0,0-2.307,2.013,16.685,16.685,0,0,0-2,2.456,14.138,14.138,0,0,0-1.563,2.813,11.948,11.948,0,0,0-.846,2.267A14.882,14.882,0,0,1,15.2,19.9,15,15,0,1,1,.531,38.04Z" transform="translate(0.235 0.966)" fill="#e6e9ec"/>
  </g>
</svg>
